<?xml version="1.0" encoding="UTF-8"?>
<svg width="1000px" height="123px" viewBox="0 0 1000 123" version="1.1" xmlns="http://www.w3.org/2000/svg" xmlns:xlink="http://www.w3.org/1999/xlink">
    <!-- Generator: Sketch 47 (45396) - http://www.bohemiancoding.com/sketch -->
    <title>Artboard</title>
    <desc>Created with Sketch.</desc>
    <defs></defs>
    <g id="Page-1" stroke="none" stroke-width="1" fill="none" fill-rule="evenodd">
        <g id="Artboard" fill-rule="nonzero" fill="#FFFFFF">
            <g id="buzzwoo-logo-on-white">
                <path d="M47.25,52.25 L66.88,52.25 C69.5696267,52.25 71.75,54.4303733 71.75,57.12 L71.75,57.12 C71.7526557,58.4133361 71.2407406,59.6546102 70.3271504,60.5700763 C69.4135602,61.4855424 68.1733388,62.0000027 66.88,62 L47.25,62 L47.25,52.25 Z" id="Shape"></path>
                <path d="M47.25,78.25 L70.36,78.25 C73.6737085,78.25 76.36,80.9362915 76.36,84.25 L76.36,84.25 C76.36,87.5637085 73.6737085,90.25 70.36,90.25 L47.25,90.25 L47.25,78.25 Z" id="Shape"></path>
                <ellipse id="Oval" cx="708.5" cy="63" rx="24" ry="19.5"></ellipse>
                <ellipse id="Oval" cx="858.5" cy="63" rx="24" ry="19.5"></ellipse>
                <path d="M1000,0 L929.5,0 L932.67,40.65 C918.89,23.43 890.39,11.59 857.45,11.59 C824.68,11.59 796.31,23.3 782.45,40.38 C768.59,23.3 740.22,11.59 707.45,11.59 C687.34,11.59 668.89,16 654.45,23.35 L586,23.35 L583,34 L578.5,23.36 L525,23.36 L520,34 L516,23.36 L465.18,23.36 L465,10.36 L231.67,10.36 L231.83,18.69 L105,18.69 L105,24.9 C99.5493529,22.2307488 93.5689388,20.819371 87.5,20.77 L0,19.77 L0,121.27 L93.87,120.27 C105.419613,120.429482 116.203811,114.509564 122.27,104.68 C133.572052,116.210422 149.044207,122.69921 165.19,122.68 L185.79,122.68 C204.16,122.68 222.03,119.68 233.56,108.56 L233.66,113.68 L467,113.68 L467,77.06 L486.5,122.67 L547,122.67 L552,113.67 L557,122.67 L614.5,122.67 L630,84.4 C642.74,103.26 672.63,116.5 707.48,116.5 C740.25,116.5 768.62,104.79 782.48,87.71 C796.34,104.79 824.71,116.5 857.48,116.5 C889.87,116.5 918,105 932,88.26 L932,88.26 L929.5,105 L1000,105 L994.5,52.5 L1000,0 Z M76,105 L19,105 L19,36.5 L77.25,36.5 C85.95,36.5 102.75,40 103,52.25 C103.072227,58.814118 99.014564,64.716537 92.86,67 C101.234337,68.7143512 107.247966,76.0819877 107.25,84.63 C106.75,93.25 101,105 76,105 Z M225,78.25 C225,89.5 209.67,105 179,105 C148.33,105 131,90 131,81 L131,34 L160.33,34 C160.33,34 161,73 161,78.25 C161,83.5 171.33,88.67 177.73,88.67 C184.67,88.67 195.33,86 195.33,77.25 C195.33,68.5 195,34 195,34 L225,34 L225,78.25 Z M339.67,41 L293.34,79 L339.67,79 L339.67,96 L252.33,96 L254.33,80 L298.66,42.67 L255.33,41.67 L255.33,26 L339.66,26 L339.67,41 Z M448.67,96 L359.33,96 L361.33,80 L405.66,42.67 L362.33,41.67 L362.33,26 L446.66,26 L446.66,41 L400.33,79 L448.66,79 L448.67,96 Z M448.34,64 L457.83,55.59 L461.32,63.76 L448.34,64 Z M599.5,107.5 L569,107.5 L548.75,70.67 L532,107.5 L500,107.5 L470,39 L500,39 L517.5,77.5 L535,39 L563,39 L580.5,77.5 L597,39 L627.5,39 L599.5,107.5 Z M708.43,98.5 C676.64,98.5 650.86,82.68 650.86,63.16 C650.86,43.64 676.63,27.82 708.43,27.82 C740.23,27.82 766,43.65 766,63.16 C766,82.67 740.23,98.5 708.43,98.5 L708.43,98.5 Z M858.43,98.5 C826.64,98.5 800.86,82.68 800.86,63.16 C800.86,43.64 826.63,27.82 858.43,27.82 C890.23,27.82 916,43.65 916,63.16 C916,82.67 890.23,98.5 858.43,98.5 L858.43,98.5 Z M948,89.5 L948,73.25 L982,72 L984,89.5 L948,89.5 Z M979.5,63.16 L951,63.16 L948,15.5 L984,15.5 L979.5,63.16 Z" id="Shape"></path>
                <polygon id="Shape" points="344 61 339.67 64.33 356.67 64.33 360.67 61"></polygon>
            </g>
        </g>
    </g>
</svg>